<svg width="20" height="20" viewBox="0 0 20 20" fill="currentColor" id="svg" xmlns="http://www.w3.org/2000/svg">    <path            d="M6.28015 5.22009C6.13798 5.08761 5.94993 5.01549 5.75563 5.01892C5.56133 5.02234 5.37594 5.10106 5.23853 5.23847C5.10112 5.37588 5.02241 5.56127 5.01898 5.75557C5.01555 5.94987 5.08767 6.13792 5.22015 6.28009L8.94015 10.0001L5.22015 13.7201C5.14647 13.7888 5.08736 13.8716 5.04637 13.9636C5.00538 14.0556 4.98334 14.1549 4.98156 14.2556C4.97979 14.3563 4.99831 14.4563 5.03603 14.5497C5.07375 14.6431 5.1299 14.7279 5.20112 14.7991C5.27233 14.8703 5.35717 14.9265 5.45056 14.9642C5.54394 15.0019 5.64397 15.0205 5.74468 15.0187C5.84538 15.0169 5.94469 14.9949 6.03669 14.9539C6.12869 14.9129 6.21149 14.8538 6.28015 14.7801L10.0002 11.0601L13.7202 14.7801C13.7888 14.8538 13.8716 14.9129 13.9636 14.9539C14.0556 14.9949 14.1549 15.0169 14.2556 15.0187C14.3563 15.0205 14.4564 15.0019 14.5498 14.9642C14.6431 14.9265 14.728 14.8703 14.7992 14.7991C14.8704 14.7279 14.9266 14.6431 14.9643 14.5497C15.002 14.4563 15.0205 14.3563 15.0187 14.2556C15.017 14.1549 14.9949 14.0556 14.9539 13.9636C14.9129 13.8716 14.8538 13.7888 14.7802 13.7201L11.0602 10.0001L14.7802 6.28009C14.9126 6.13792 14.9848 5.94987 14.9813 5.75557C14.9779 5.56127 14.8992 5.37588 14.7618 5.23847C14.6244 5.10106 14.439 5.02234 14.2447 5.01892C14.0504 5.01549 13.8623 5.08761 13.7202 5.22009L10.0002 8.94009L6.28015 5.22009Z"/></svg>