<svg width="16" height="16" viewBox="0 0 16 16" fill="currentColor" id="svg" xmlns="http://www.w3.org/2000/svg">
    <path d="M8 10C8.53043 10 9.03914 9.78929 9.41421 9.41421C9.78929 9.03914 10 8.53043 10 8C10 7.46957 9.78929 6.96086 9.41421 6.58579C9.03914 6.21071 8.53043 6 8 6C7.46957 6 6.96086 6.21071 6.58579 6.58579C6.21071 6.96086 6 7.46957 6 8C6 8.53043 6.21071 9.03914 6.58579 9.41421C6.96086 9.78929 7.46957 10 8 10Z" />
    <path fill-rule="evenodd" clip-rule="evenodd" d="M0.531253 8.4719C0.413736 8.16655 0.413736 7.82845 0.531253 7.5231C1.11304 6.0147 2.13802 4.71786 3.47122 3.80335C4.80443 2.88884 6.38334 2.39955 8.00005 2.3999C11.4057 2.3999 14.3145 4.5279 15.4689 7.5279C15.5865 7.8327 15.5857 8.1711 15.4689 8.4767C14.8871 9.98511 13.8621 11.2819 12.5289 12.1965C11.1957 13.111 9.61677 13.6003 8.00005 13.5999C4.59445 13.5999 1.68565 11.4719 0.531253 8.4719ZM11.2001 7.9999C11.2001 8.8486 10.8629 9.66253 10.2628 10.2626C9.66268 10.8628 8.84875 11.1999 8.00005 11.1999C7.15136 11.1999 6.33743 10.8628 5.73731 10.2626C5.13719 9.66253 4.80005 8.8486 4.80005 7.9999C4.80005 7.15121 5.13719 6.33728 5.73731 5.73716C6.33743 5.13704 7.15136 4.7999 8.00005 4.7999C8.84875 4.7999 9.66268 5.13704 10.2628 5.73716C10.8629 6.33728 11.2001 7.15121 11.2001 7.9999Z" />
</svg>
