<svg width="164" height="40" viewBox="0 0 164 40" fill="none" xmlns="http://www.w3.org/2000/svg">
    <g clip-path="url(#clip0_444_924)">
        <path d="M11.391 11.1074C12.6605 11.0497 13.9156 10.8136 15.1193 10.4061C16.3569 9.98841 17.0633 9.53462 17.4862 8.82816C17.677 8.5033 17.8059 8.12686 17.7028 8.04436C17.4965 7.87419 16.5322 9.02412 16.1248 8.78691C15.934 8.67347 15.9443 8.30219 15.9959 8.08561C16.0496 7.91161 16.14 7.75115 16.261 7.61505C16.382 7.47895 16.5307 7.37038 16.6972 7.29664C17.3521 6.91505 17.6615 7.0285 18.8991 6.72942C19.7706 6.53346 20.7142 6.21375 20.7142 6.21375C21.3703 5.98597 21.9956 5.67766 22.5758 5.29587C23.0552 4.858 23.4889 4.37249 23.8701 3.84686C24.0687 3.50736 24.1737 3.12122 24.1743 2.72787C24.1743 2.72787 24.2001 2.51129 24.066 2.47004C23.932 2.42878 23.736 2.9857 23.0347 3.58387C22.3334 4.18204 19.2394 5.05351 19.2394 5.05351C19.2394 5.05351 17.5326 5.35775 16.6147 5.56917C16.0821 5.6852 15.5634 5.85808 15.0677 6.08484C13.6445 6.50252 13.6857 7.50807 13.6857 7.50807C14.5624 7.50807 14.7841 8.02373 14.4953 8.73535C14.2066 9.44696 12.773 9.30773 12.773 9.30773C12.4653 9.13655 12.2252 8.86551 12.0923 8.53939C11.7778 7.67824 12.51 6.78098 12.6647 6.59019C13.0927 6.07452 13.4537 5.99202 14.9182 5.12055C15.4338 4.81115 15.8618 4.54816 16.1248 4.37799L16.8003 3.94999C17.2941 3.53698 17.6353 2.97061 17.7698 2.34112C17.7698 2.34112 17.7698 1.74811 17.6048 1.65013C17.4398 1.55216 17.5223 1.83061 17.4913 1.99563C17.4408 2.13769 17.3638 2.26891 17.2644 2.38237C17.1355 2.62474 15.2018 3.65606 15.2018 3.65606C14.8305 3.83139 12.7936 4.85756 12.7936 4.85756C11.9153 5.19815 11.1542 5.78554 10.6021 6.54893C10.0348 7.0646 9.02414 9.04474 9.02414 9.04474C8.67198 9.87924 8.47117 10.7698 8.43113 11.6746C8.41646 12.0689 8.43198 12.4636 8.47754 12.8555C8.8926 12.3562 9.39822 11.9398 9.96781 11.6282C10.4217 11.3875 10.908 11.2138 11.4117 11.1126" fill="#FBB03A"/>
        <path d="M20.1572 18.4505C20.1572 18.4505 23.9267 15.9495 24.8909 14.3252C25.7568 13.2662 26.5135 12.1225 27.1495 10.9115C27.3868 10.3958 27.624 9.80794 27.8457 9.18399C28.1131 8.42868 28.3387 7.65917 28.5212 6.87898C28.151 7.44934 27.7187 7.97683 27.2321 8.45175C26.9443 8.73481 26.6395 9.00002 26.3193 9.24587C26.0892 9.40875 25.8375 9.53891 25.5716 9.63262C24.9917 9.82678 24.3672 9.84473 23.7771 9.68418C23.7008 9.24623 23.7302 8.79638 23.863 8.37211C23.9957 7.94784 24.2279 7.56143 24.5403 7.2451C24.7005 6.94457 24.9672 6.7147 25.288 6.60052C25.6696 6.4716 26.2059 6.49739 26.3193 6.75006C26.3785 6.91526 26.3928 7.09322 26.3606 7.26572L26.1182 7.97734L27.0361 7.2451C27.6518 6.41625 28.0503 5.44652 28.1953 4.42426C28.3403 3.40199 28.2272 2.35969 27.8663 1.39232C27.6755 0.928223 27.4899 0.45897 27.2991 -0.00512695L26.3296 2.74851C25.9569 3.42925 25.5182 4.07175 25.0199 4.66678C24.4702 5.37357 23.8245 6.00013 23.1016 6.52833C21.9802 7.29739 20.6771 7.75961 19.3218 7.86905C20.4552 9.02557 21.2259 10.4881 21.5391 12.0769C21.9213 14.2936 21.4256 16.5721 20.1572 18.4298" fill="#FBB03A"/>
        <path d="M31.543 5.18244C31.8627 5.75482 32.1875 6.32721 32.5124 6.89959C32.2999 7.84995 31.9526 8.76505 31.4811 9.61714C31.4811 9.61714 31.3367 9.88013 31.1717 10.1328C30.7849 10.7361 29.4391 12.7111 25.7521 15.3616C25.2631 15.7438 24.7459 16.0886 24.2051 16.393C24.2051 16.393 24.5093 16.1248 24.9786 15.6813C24.9786 15.6813 25.3911 15.2946 26.7215 13.7631C27.9434 12.2652 28.8361 10.5268 29.3416 8.66103C29.8472 6.79528 29.9542 4.84398 29.6556 2.93414L31.543 5.18244Z" fill="#FBB03A"/>
        <path d="M33.5647 4.99683C33.5647 4.99683 37.1124 8.54459 36.9371 12.0098C36.9371 12.0098 37.2001 15.6865 35.5809 16.8261H35.2612C35.2612 16.8261 33.74 15.0729 32.5127 15.3359C32.5127 15.3359 30.9348 15.1657 30.9348 16.393C30.9494 16.7552 31.0694 17.1052 31.28 17.4002C31.4907 17.6951 31.7829 17.9222 32.1208 18.0534C32.8441 18.4442 33.6766 18.5838 34.4877 18.4505L35.5809 18.2287C35.2029 18.6645 34.698 18.971 34.1371 19.1054C33.0387 19.456 30.3212 18.8888 30.3212 18.8888C29.4766 18.5663 28.6161 18.2874 27.7428 18.0534C25.0098 17.6357 22.9678 18.2752 22.8801 17.9658C22.7925 17.6564 24.5251 17.1201 26.6496 15.8206C27.7441 15.1448 28.7792 14.3771 29.7436 13.5259C32.7448 10.0142 33.1934 8.80242 33.1934 8.80242C33.6267 7.58338 33.7542 6.27663 33.5647 4.99683Z" fill="#FBB03A"/>
        <path d="M21.9932 19.456C21.9932 19.456 29.001 22.1271 31.1926 28.9648L31.4556 28.6606C31.4556 28.6606 31.2751 26.8403 32.2497 26.8403C33.2243 26.8403 33.6523 28.9855 33.6523 28.9855C33.9487 29.8479 34.3469 30.6719 34.8383 31.44C35.2919 32.0521 35.9679 32.4614 36.7205 32.5796C36.0301 31.8339 35.6137 30.8756 35.5396 29.8621C35.4056 28.1552 35.4262 26.5773 35.4262 26.5773C35.485 25.7215 35.3383 24.8639 34.9982 24.0764C34.7519 23.474 34.3295 22.96 33.7864 22.6016L33.2243 22.1993L33.5853 23.0863C33.5853 23.0863 33.8173 23.5143 33.3893 23.6432C32.9613 23.7721 32.5127 23.0553 32.5127 23.0553C32.5127 23.0553 31.7134 21.3794 33.2604 21.1783C33.2604 21.1783 33.312 20.8535 29.3568 19.8324C28.3515 19.5166 27.3135 19.3159 26.2629 19.2343C24.293 19.0435 23.9166 19.2343 23.9166 19.2343L25.7059 19.7035C27.0705 20.1946 28.3721 20.8454 29.5837 21.6424C30.0994 22.0292 30.5377 22.4314 30.5377 22.4314L31.1617 22.9883C31.1617 22.9883 32.193 23.7463 31.3885 24.4683C31.1389 24.4077 30.8968 24.3195 30.6666 24.2053C30.3537 24.0348 30.0568 23.8363 29.7797 23.6123L27.5778 22.0034L24.9995 20.4255L22.4212 19.4405L21.9932 19.456Z" fill="#FBB03A"/>
        <path d="M20.7711 13.4743C20.7711 13.4743 19.8842 16.0114 19.3221 16.393C19.3221 16.393 18.2908 17.9142 17.5482 18.1411C16.8737 18.6298 16.1177 18.9947 15.3154 19.2188L15.1504 19.456C15.6856 19.4451 16.2189 19.5235 16.7283 19.688C17.4502 19.951 20.6731 21.0649 21.591 21.8899C21.591 21.8899 25.2419 24.6797 25.5049 25.3397C25.5049 25.3397 27.5676 27.8716 27.8048 28.5936C27.8048 28.5936 28.5937 30.6562 28.7587 31.3214C28.7587 31.3214 29.3157 34.4154 29.0836 35.1012C29.0836 35.1012 29.1197 35.9882 30.3676 32.7343C30.3676 32.7343 30.9245 30.3674 30.3676 29.2845C29.8845 28.2061 29.2546 27.1996 28.4958 26.2937C27.346 24.7479 25.997 23.3608 24.4839 22.1684L20.6319 19.6726L18.6002 18.6825C18.6002 18.6825 20.0492 17.1871 20.3431 16.3775C20.6133 15.4245 20.82 14.4546 20.9619 13.4743H20.7711Z" fill="#FBB03A"/>
        <path d="M14.5264 20.312C14.5264 20.312 19.322 21.2969 20.441 22.4469C20.441 22.4469 22.5037 23.9578 22.8853 24.7828C23.4774 25.508 23.9144 26.3469 24.1693 27.2477C24.1693 27.2477 24.6488 28.9855 25.1439 29.2846C25.1453 29.3808 25.1707 29.4751 25.2179 29.559C25.265 29.6429 25.3324 29.7137 25.4139 29.7649C25.4953 29.8161 25.5883 29.8462 25.6843 29.8524C25.7804 29.8585 25.8764 29.8406 25.9638 29.8002C26.6857 29.5372 26.2268 28.3564 26.1907 28.2223C26.7031 28.7461 27.097 29.3739 27.3458 30.0632C27.4414 30.4008 27.555 30.733 27.6861 31.0584C27.8448 31.6144 27.9501 32.1842 28.0006 32.7601C28.1168 34.6001 28.0944 36.4462 27.9336 38.2829C27.8872 38.2829 27.9749 35.9469 28.0006 35.9469C28.0081 36.0568 28.0081 36.1671 28.0006 36.2769C27.9697 36.9422 27.9439 37.6125 27.9181 38.2829C27.6181 36.7198 27.1099 35.204 26.4072 33.776C25.7919 32.5333 25.0358 31.3654 24.1538 30.2953L21.2919 27.3353C21.2919 27.3353 20.3482 26.0874 20.6164 25.1335C20.6164 25.1335 21.2145 26.2525 21.7405 26.2525C21.7405 26.2525 22.7718 26.2834 21.9829 25.1025C21.4768 24.3555 20.837 23.7087 20.0955 23.1946C20.0955 23.1946 18.5485 22.0137 17.9297 21.8487L17.5688 21.7146L18.4196 22.5397L19.5696 23.6535C19.2503 24.8092 19.3908 26.0437 19.9615 27.0981C20.3935 27.8481 21.0351 28.4557 21.8075 28.8462C21.6391 28.8889 21.4656 28.9079 21.2919 28.903C20.8137 28.8791 20.3568 28.6978 19.9924 28.3873C19.1701 27.7231 18.5355 26.8557 18.1515 25.8709C18.1515 25.8709 18.2185 26.0874 17.7596 24.6436C17.5194 23.7779 17.149 22.9538 16.6612 22.1993L14.5264 20.312Z" fill="#FBB03A"/>
        <path d="M15.1503 29.5784C15.6041 29.4856 16.0888 29.398 16.6045 29.3309C17.386 29.2269 18.1728 29.1667 18.9611 29.1505C19.5041 29.1639 20.0446 29.2295 20.5751 29.3464C21.1737 29.4796 21.7563 29.6767 22.3129 29.9343C22.3472 30.5868 22.4811 31.2302 22.7099 31.8422C22.7099 31.8422 23.7928 34.2091 24.9428 34.4205C24.9428 34.4205 25.6028 34.8176 23.6278 34.4205C22.9781 34.1411 22.4141 33.6945 21.9932 33.1262C21.9932 33.1262 21.3125 31.7133 20.6267 31.3884C20.6267 31.3884 19.781 30.2694 19.1209 30.2024C19.2137 30.3004 19.3478 30.4396 19.5077 30.6201C20.1155 31.356 20.6347 32.1608 21.0547 33.0179C21.3488 33.5944 21.7143 34.1314 22.1427 34.6165L22.2252 34.699L21.8436 34.3329C21.8436 34.3329 23.1586 35.7252 24.8035 35.5911C24.8035 35.5911 25.8349 35.3539 25.9174 35.2095C25.9999 35.0651 25.8555 35.3539 25.8555 35.3539C25.8555 35.3539 26.8095 35.6581 26.9384 37.5661C27.0829 38.3067 27.002 39.0737 26.7063 39.768C26.6625 39.4766 26.5627 39.1964 26.4124 38.9429C26.1608 38.5234 25.7889 38.1892 25.345 37.9838C25.0511 37.8445 24.7262 37.7053 24.3755 37.5764C23.8842 37.4002 23.381 37.2589 22.8698 37.1535C22.8698 37.1535 21.034 37.2206 20.2141 36.3955C19.5517 35.9612 19.0811 35.2894 18.8992 34.5185C18.8992 34.5185 18.7651 34.7041 18.6981 33.4253C18.7218 33.1939 18.7218 32.9606 18.6981 32.7292C18.6674 32.2979 18.5609 31.8755 18.3835 31.4812C18.3835 31.4812 17.8679 30.3313 17.4605 30.4912C17.7942 30.9413 17.9895 31.4788 18.0226 32.0382C17.9302 32.8613 17.9406 33.6928 18.0535 34.5133C18.1824 34.962 18.7084 36.8338 19.6314 37.0917C19.6314 37.0917 21.2403 37.7517 22.2098 37.6537C22.2098 37.6537 22.3748 37.9838 21.5858 38.6851C21.2834 39.0709 20.8998 39.3855 20.4623 39.6065C20.0247 39.8275 19.5439 39.9495 19.0539 39.9639C19.0539 39.9639 17.28 40.0619 16.3621 39.046C16.3621 39.046 15.4082 38.6851 15.1761 37.2051C14.9177 36.5624 14.8497 35.8589 14.9802 35.1786C14.9802 35.1786 15.3411 33.6316 15.6711 33.3273C15.6711 33.3273 16.2951 31.9144 16.1301 31.1925C16.0465 30.9546 15.9376 30.7264 15.8052 30.5118C15.6274 30.169 15.3998 29.8544 15.1297 29.5784" fill="#FBB03A"/>
        <path d="M10.3854 29.7126C10.3854 29.7126 11.5353 29.7745 11.5044 30.5634C11.5044 30.5634 11.4374 31.8474 10.9423 32.3064C10.5955 32.9286 10.3237 33.5899 10.1327 34.2762C10.1018 34.7919 10.1327 34.4412 10.1327 34.4412C9.93362 35.1284 9.93362 35.8579 10.1327 36.5451C10.3094 37.103 10.6171 37.6104 11.03 38.0251C11.03 38.0251 12.381 39.3039 13.0926 39.273C13.0926 39.273 11.8086 38.2416 11.7777 37.6641C11.7777 37.6641 11.3858 37.1484 11.5302 35.7561C11.586 35.1316 11.7482 34.5212 12.0097 33.9513L12.5254 32.559C12.5624 32.3583 12.6396 32.1671 12.7523 31.997L12.9483 31.9351V33.018C12.9212 33.4457 12.7978 33.8617 12.5873 34.2349C12.409 34.6366 12.3294 35.0751 12.3552 35.5138C12.3008 36.0234 12.3571 36.5388 12.5203 37.0247C12.5203 37.0247 12.7832 38.2107 13.5052 38.5046C13.5052 38.5046 12.8812 36.9937 13.1803 36.0088C13.1803 36.0088 13.5413 34.5959 14.1291 34.0699C14.5773 33.6542 14.9293 33.1456 15.1604 32.5797C15.4057 32.131 15.4755 31.6073 15.3564 31.11C15.3288 30.9513 15.2802 30.797 15.212 30.6511C15.133 30.4819 15.0267 30.3269 14.8975 30.1921C14.9272 30.2821 14.9375 30.3773 14.9277 30.4715C14.9179 30.5657 14.8883 30.6568 14.8407 30.7387C14.7842 30.8264 14.7083 30.8998 14.6189 30.9535C14.5295 31.0071 14.429 31.0395 14.3251 31.0481C14.0978 31.0693 13.8692 31.0265 13.665 30.9244C13.4525 30.8194 13.2738 30.6568 13.1494 30.4551C12.9471 30.044 12.5945 29.7264 12.1644 29.5682C12.1644 29.5682 11.0145 29.1402 10.3906 29.7332" fill="#FBB03A"/>
        <path d="M1.53174 19.5437C1.53174 19.5437 3.28499 17.7492 4.51227 17.7492C4.51227 17.7492 5.12591 17.4862 8.12191 17.3521C8.98419 17.1267 9.7902 16.7246 10.4888 16.1712C9.87485 16.3548 9.2206 16.3548 8.60664 16.1712C8.60664 16.1712 8.99854 16.2589 10.0092 15.2069C10.3858 14.7525 10.8112 14.341 11.2778 13.9797C11.2778 13.9797 11.7573 13.2319 12.2421 13.7579V14.5056L13.9334 13.9487L15.1504 13.4898L16.6974 12.3708C16.6974 12.3708 17.7287 11.7159 18.0123 11.7623C18.2959 11.8087 18.528 11.587 18.528 12.8761C18.5079 14.0589 18.1752 15.2153 17.5637 16.2279C17.1667 16.7127 15.8981 17.9399 15.8981 17.9399C15.8981 17.9399 16.4138 18.1617 18.0433 16.393C18.3439 16.1216 18.6168 15.821 18.858 15.4957C19.6836 14.3236 20.1218 12.9226 20.1111 11.489L19.8945 10.1741C19.8945 10.1741 20.3741 9.60167 17.048 10.4783C17.048 10.4783 14.6347 11.4013 13.6292 12.3192C12.9616 12.4294 12.2805 12.4294 11.613 12.3192C10.6741 12.3229 9.76459 12.6467 9.03464 13.2371C9.03464 13.2371 6.26553 15.0729 4.97637 14.98C4.97637 14.98 4.76495 15.274 5.37343 16.3878C4.51687 16.532 3.71334 16.8991 3.04354 17.4521C2.37374 18.0052 1.86124 18.7247 1.55752 19.5385" fill="#FBB03A"/>
        <path d="M3.47045 26.2421C3.47045 26.2421 2.81556 24.097 4.39349 23.4833C4.39349 23.4833 5.2237 22.8233 7.28636 22.9986C7.28636 22.9986 7.49778 21.9931 5.31137 22.122C5.03926 22.1543 4.76903 22.2007 4.50178 22.2612C4.03835 22.3691 3.58732 22.5246 3.15589 22.7253C2.88436 22.7396 2.61365 22.6847 2.36919 22.5656C2.12474 22.4465 1.91457 22.2673 1.75844 22.0447L1.47999 21.7353C1.29819 21.6205 1.14175 21.4699 1.02027 21.2925C0.898789 21.1152 0.814823 20.9149 0.773528 20.7039C0.720067 20.3985 0.759591 20.0842 0.886975 19.8015C0.676116 19.9097 0.49044 20.0612 0.342057 20.246C0.193674 20.4308 0.0859187 20.6448 0.0258179 20.8741C0.00311279 21.0124 0.00311279 21.1535 0.0258179 21.2918C0.412431 21.9068 0.852444 22.4866 1.34076 23.0244L2.37208 24.0557C2.48102 24.8969 2.88266 25.6727 3.50654 26.2473" fill="#FBB03A"/>
        <path d="M7.29162 31.373C6.50008 29.9757 6.14115 28.3748 6.2603 26.7733C6.2603 26.7733 8.14763 26.1597 8.18888 24.9324C8.18888 24.9324 7.53398 26.5567 4.64111 25.3294L5.15678 26.7733C5.15678 26.7733 5.80136 30.847 7.27615 31.373" fill="#FBB03A"/>
        <path d="M7.84326 31.636C7.84326 31.636 8.15266 28.7483 9.99358 28.1552C11.8345 27.5622 9.99358 28.9236 9.99358 28.9236C11.2394 28.4681 12.5762 28.3178 13.892 28.4853C13.892 28.4853 16.3878 28.3976 16.9602 28.1552L18.1411 27.4333C18.1411 27.4333 17.3108 27.0827 16.9602 24.9323C16.9111 24.4796 16.7855 24.0385 16.5889 23.6277C16.0987 22.6814 15.2786 21.9476 14.2839 21.5651C14.9587 22.0224 15.4558 22.6979 15.6917 23.4782C15.8013 23.9862 15.8292 24.5084 15.7742 25.0252C15.7575 25.2177 15.7282 25.4089 15.6865 25.5975C15.2599 26.1335 14.7639 26.6103 14.2117 27.0156C13.6709 27.258 13.0816 27.3727 12.4894 27.3508C12.2154 27.3328 11.9441 27.2861 11.6798 27.2116C11.7107 26.995 11.7417 26.7733 11.7675 26.5567C11.7675 26.5567 7.64215 26.732 7.86905 31.636" fill="#FBB03A"/>
    </g>
    <path d="M46.2646 25.7188V15.2188H55.0215C55.6777 15.2188 56.2064 15.2734 56.6074 15.3828C57.0085 15.4876 57.3161 15.6449 57.5303 15.8545C57.749 16.0596 57.8949 16.3171 57.9678 16.627C58.0407 16.9368 58.0771 17.2923 58.0771 17.6934C58.0771 17.985 58.0521 18.2425 58.002 18.4658C57.9518 18.6891 57.8857 18.8828 57.8037 19.0469C57.7217 19.2109 57.6283 19.3499 57.5234 19.4639C57.4186 19.5732 57.3115 19.6644 57.2021 19.7373C56.9469 19.9105 56.6553 20.0085 56.3271 20.0312C56.7373 20.054 57.1019 20.1543 57.4209 20.332C57.5576 20.4095 57.6898 20.5075 57.8174 20.626C57.9495 20.7399 58.0658 20.8835 58.166 21.0566C58.2708 21.2253 58.3551 21.4258 58.4189 21.6582C58.4827 21.8861 58.5146 22.1504 58.5146 22.4512C58.5146 22.8158 58.4964 23.1507 58.46 23.4561C58.4281 23.7568 58.3597 24.028 58.2549 24.2695C58.1501 24.5111 57.9997 24.723 57.8037 24.9053C57.6077 25.0876 57.3457 25.2402 57.0176 25.3633C56.694 25.4818 56.2952 25.5706 55.8213 25.6299C55.3519 25.6891 54.7891 25.7188 54.1328 25.7188H46.2646ZM53.6953 24.625C54.2057 24.625 54.6478 24.6182 55.0215 24.6045C55.3952 24.5863 55.7119 24.5521 55.9717 24.502C56.2314 24.4473 56.4411 24.3721 56.6006 24.2764C56.7601 24.1761 56.8831 24.0462 56.9697 23.8867C57.0609 23.7227 57.1224 23.5244 57.1543 23.292C57.1862 23.0596 57.2021 22.7793 57.2021 22.4512C57.2021 22.196 57.1862 21.9749 57.1543 21.7881C57.1224 21.5967 57.0609 21.4372 56.9697 21.3096C56.8831 21.1774 56.7601 21.0726 56.6006 20.9951C56.4411 20.9131 56.2314 20.8493 55.9717 20.8037C55.7119 20.7581 55.3952 20.7285 55.0215 20.7148C54.6478 20.6966 54.2057 20.6875 53.6953 20.6875H47.5771V24.625H53.6953ZM53.6953 19.5938C54.1419 19.5938 54.527 19.5846 54.8506 19.5664C55.1742 19.5482 55.4499 19.514 55.6777 19.4639C55.9056 19.4137 56.0902 19.3454 56.2314 19.2588C56.3727 19.1676 56.4821 19.0514 56.5596 18.9102C56.6416 18.7689 56.6963 18.6003 56.7236 18.4043C56.751 18.2038 56.7646 17.9668 56.7646 17.6934C56.7646 17.4017 56.7327 17.1647 56.6689 16.9824C56.6051 16.8001 56.4912 16.6611 56.3271 16.5654C56.1631 16.4652 55.9398 16.3991 55.6572 16.3672C55.3792 16.3307 55.0215 16.3125 54.584 16.3125H47.5771V19.5938H53.6953Z" fill="white"/>
    <path d="M67.3193 19.8125C68.0394 19.8125 68.6569 19.8421 69.1719 19.9014C69.6868 19.9606 70.1198 20.0495 70.4707 20.168C70.8262 20.2819 71.1087 20.4255 71.3184 20.5986C71.528 20.7718 71.6898 20.9701 71.8037 21.1934C71.9176 21.4121 71.9906 21.6582 72.0225 21.9316C72.0589 22.2051 72.0771 22.5013 72.0771 22.8203C72.0771 23.1393 72.0475 23.4401 71.9883 23.7227C71.9336 24.0007 71.8333 24.2559 71.6875 24.4883C71.5417 24.7207 71.3434 24.9281 71.0928 25.1104C70.8421 25.2926 70.5231 25.4476 70.1357 25.5752C69.7484 25.7028 69.2812 25.7985 68.7344 25.8623C68.1921 25.9307 67.5563 25.9648 66.8271 25.9648H65.0771C64.4209 25.9648 63.8467 25.9398 63.3545 25.8896C62.8623 25.8395 62.4385 25.7643 62.083 25.6641C61.7275 25.5592 61.4336 25.4294 61.2012 25.2744C60.9688 25.1149 60.7819 24.9303 60.6406 24.7207C60.5039 24.5065 60.4082 24.265 60.3535 23.9961C60.2988 23.7227 60.2715 23.4219 60.2715 23.0938H61.584C61.584 23.5039 61.6432 23.8252 61.7617 24.0576C61.8802 24.29 62.0762 24.4655 62.3496 24.584C62.623 24.6979 62.9808 24.7708 63.4229 24.8027C63.8695 24.8301 64.4209 24.8438 65.0771 24.8438H66.8271C67.5928 24.8438 68.2285 24.8073 68.7344 24.7344C69.2402 24.6615 69.6436 24.5452 69.9443 24.3857C70.2451 24.2262 70.457 24.0189 70.5801 23.7637C70.7031 23.5039 70.7646 23.1895 70.7646 22.8203C70.7646 22.4512 70.7214 22.1436 70.6348 21.8975C70.5527 21.6514 70.3864 21.4554 70.1357 21.3096C69.8896 21.1637 69.541 21.0612 69.0898 21.002C68.6387 20.9382 68.0485 20.9062 67.3193 20.9062H65.5146C64.7126 20.9062 64.0244 20.8766 63.4502 20.8174C62.8805 20.7581 62.402 20.6738 62.0146 20.5645C61.6273 20.4505 61.3174 20.3115 61.085 20.1475C60.8525 19.9788 60.6748 19.7874 60.5518 19.5732C60.4333 19.359 60.3558 19.1221 60.3193 18.8623C60.2829 18.598 60.2646 18.3132 60.2646 18.0078C60.2646 17.6888 60.292 17.3926 60.3467 17.1191C60.4059 16.8457 60.513 16.5996 60.668 16.3809C60.8229 16.1576 61.0348 15.9593 61.3037 15.7861C61.5726 15.613 61.9167 15.4694 62.3359 15.3555C62.7598 15.237 63.2679 15.1481 63.8604 15.0889C64.4528 15.0296 65.1501 15 65.9521 15H67.2646C67.9209 15 68.4951 15.0251 68.9873 15.0752C69.4795 15.1208 69.9033 15.196 70.2588 15.3008C70.6143 15.401 70.9082 15.5286 71.1406 15.6836C71.3776 15.834 71.5645 16.0163 71.7012 16.2305C71.8424 16.4401 71.9404 16.6794 71.9951 16.9482C72.0498 17.2171 72.0771 17.5156 72.0771 17.8438H70.7646C70.7646 17.4336 70.7054 17.1123 70.5869 16.8799C70.4684 16.6475 70.2725 16.4743 69.999 16.3604C69.7256 16.2419 69.3656 16.1689 68.9189 16.1416C68.4723 16.1097 67.9209 16.0938 67.2646 16.0938H65.9521C65.0771 16.0938 64.3571 16.1257 63.792 16.1895C63.2269 16.2487 62.7803 16.3512 62.4521 16.4971C62.124 16.6429 61.8962 16.8389 61.7686 17.085C61.641 17.3311 61.5771 17.6387 61.5771 18.0078C61.5771 18.2357 61.5931 18.4385 61.625 18.6162C61.6569 18.7939 61.7207 18.9512 61.8164 19.0879C61.9167 19.2201 62.0557 19.3317 62.2334 19.4229C62.4111 19.514 62.6458 19.5892 62.9375 19.6484C63.2292 19.7077 63.5846 19.751 64.0039 19.7783C64.4277 19.8011 64.9313 19.8125 65.5146 19.8125H67.3193Z" fill="white"/>
    <path d="M85.6396 15.2188V16.3125H80.3896V25.7188H79.0771V16.3125H73.8271V15.2188H85.6396Z" fill="white"/>
    <path d="M101.82 18.5C101.82 17.9531 101.761 17.5202 101.643 17.2012C101.524 16.8822 101.328 16.6406 101.055 16.4766C100.781 16.3125 100.421 16.2077 99.9746 16.1621C99.5326 16.1165 98.9834 16.0938 98.3271 16.0938H95.2578C94.6745 16.0938 94.1823 16.112 93.7812 16.1484C93.3848 16.1803 93.0566 16.2487 92.7969 16.3535C92.5371 16.4583 92.3366 16.6087 92.1953 16.8047C92.054 17.0007 91.9515 17.2604 91.8877 17.584C91.8239 17.9076 91.7874 18.3063 91.7783 18.7803C91.7692 19.2497 91.7646 19.8125 91.7646 20.4688C91.7646 21.125 91.7692 21.6901 91.7783 22.1641C91.792 22.6335 91.8307 23.0299 91.8945 23.3535C91.9583 23.6771 92.0586 23.9368 92.1953 24.1328C92.3366 24.3288 92.5371 24.4792 92.7969 24.584C93.0566 24.6888 93.3848 24.7594 93.7812 24.7959C94.1823 24.8278 94.6745 24.8438 95.2578 24.8438H98.3271C98.8376 24.8438 99.2773 24.8301 99.6465 24.8027C100.016 24.7754 100.33 24.7253 100.59 24.6523C100.85 24.5794 101.059 24.4792 101.219 24.3516C101.378 24.224 101.501 24.0645 101.588 23.873C101.679 23.6771 101.741 23.4447 101.772 23.1758C101.804 22.9023 101.82 22.5833 101.82 22.2188H103.133C103.133 22.6562 103.105 23.0527 103.051 23.4082C102.996 23.7591 102.898 24.0736 102.757 24.3516C102.62 24.625 102.436 24.862 102.203 25.0625C101.971 25.263 101.677 25.4294 101.321 25.5615C100.966 25.6891 100.542 25.7826 100.05 25.8418C99.5576 25.9056 98.9834 25.9375 98.3271 25.9375H95.2578C94.4557 25.9375 93.779 25.8874 93.2275 25.7871C92.6807 25.6914 92.2295 25.5456 91.874 25.3496C91.5186 25.1491 91.2428 24.8984 91.0469 24.5977C90.8555 24.2969 90.7142 23.9437 90.623 23.5381C90.5365 23.1325 90.4863 22.6745 90.4727 22.1641C90.459 21.6536 90.4521 21.0885 90.4521 20.4688C90.4521 19.849 90.459 19.2839 90.4727 18.7734C90.4863 18.263 90.5365 17.805 90.623 17.3994C90.7142 16.9938 90.8555 16.6406 91.0469 16.3398C91.2428 16.0391 91.5186 15.7907 91.874 15.5947C92.2295 15.3942 92.6807 15.2461 93.2275 15.1504C93.779 15.0501 94.4557 15 95.2578 15H98.3271C98.9834 15 99.5576 15.0319 100.05 15.0957C100.542 15.1549 100.966 15.2484 101.321 15.376C101.677 15.499 101.971 15.6562 102.203 15.8477C102.436 16.0391 102.62 16.2646 102.757 16.5244C102.898 16.7842 102.996 17.0781 103.051 17.4062C103.105 17.7344 103.133 18.099 103.133 18.5H101.82Z" fill="white"/>
    <path d="M113.646 15C114.449 15 115.123 15.0501 115.67 15.1504C116.221 15.2461 116.675 15.3942 117.03 15.5947C117.386 15.7907 117.659 16.0391 117.851 16.3398C118.042 16.6406 118.181 16.9938 118.268 17.3994C118.359 17.805 118.411 18.263 118.425 18.7734C118.443 19.2839 118.452 19.849 118.452 20.4688C118.452 21.0885 118.443 21.6536 118.425 22.1641C118.411 22.6745 118.359 23.1325 118.268 23.5381C118.181 23.9437 118.042 24.2969 117.851 24.5977C117.659 24.8984 117.386 25.1491 117.03 25.3496C116.675 25.5456 116.221 25.6914 115.67 25.7871C115.123 25.8874 114.449 25.9375 113.646 25.9375H109.695C108.893 25.9375 108.216 25.8874 107.665 25.7871C107.118 25.6914 106.667 25.5456 106.312 25.3496C105.956 25.1491 105.68 24.8984 105.484 24.5977C105.293 24.2969 105.152 23.9437 105.061 23.5381C104.974 23.1325 104.924 22.6745 104.91 22.1641C104.896 21.6536 104.89 21.0885 104.89 20.4688C104.89 19.849 104.896 19.2839 104.91 18.7734C104.924 18.263 104.974 17.805 105.061 17.3994C105.152 16.9938 105.293 16.6406 105.484 16.3398C105.68 16.0391 105.956 15.7907 106.312 15.5947C106.667 15.3942 107.118 15.2461 107.665 15.1504C108.216 15.0501 108.893 15 109.695 15H113.646ZM113.646 24.8438C114.225 24.8438 114.713 24.8278 115.109 24.7959C115.51 24.7594 115.841 24.6888 116.101 24.584C116.36 24.4792 116.561 24.3288 116.702 24.1328C116.843 23.9368 116.946 23.6771 117.01 23.3535C117.074 23.0299 117.11 22.6335 117.119 22.1641C117.133 21.6901 117.14 21.125 117.14 20.4688C117.14 19.8125 117.133 19.2497 117.119 18.7803C117.11 18.3063 117.074 17.9076 117.01 17.584C116.946 17.2604 116.843 17.0007 116.702 16.8047C116.561 16.6087 116.36 16.4583 116.101 16.3535C115.845 16.2487 115.517 16.1803 115.116 16.1484C114.72 16.112 114.23 16.0938 113.646 16.0938H109.695C109.112 16.0938 108.62 16.112 108.219 16.1484C107.822 16.1803 107.494 16.2487 107.234 16.3535C106.975 16.4583 106.774 16.6087 106.633 16.8047C106.492 17.0007 106.389 17.2604 106.325 17.584C106.261 17.9076 106.225 18.3063 106.216 18.7803C106.207 19.2497 106.202 19.8125 106.202 20.4688C106.202 21.125 106.207 21.6901 106.216 22.1641C106.229 22.6335 106.268 23.0299 106.332 23.3535C106.396 23.6771 106.496 23.9368 106.633 24.1328C106.774 24.3288 106.975 24.4792 107.234 24.584C107.494 24.6888 107.822 24.7594 108.219 24.7959C108.62 24.8278 109.112 24.8438 109.695 24.8438H113.646Z" fill="white"/>
    <path d="M130.921 23.3125H122.608L121.296 25.7188H119.765L125.89 15.2188H127.64L133.765 25.7188H132.233L130.921 23.3125ZM130.265 22.2188L126.765 16.0938L123.265 22.2188H130.265Z" fill="white"/>
    <path d="M146.445 18.5C146.445 17.9531 146.386 17.5202 146.268 17.2012C146.149 16.8822 145.953 16.6406 145.68 16.4766C145.406 16.3125 145.046 16.2077 144.6 16.1621C144.158 16.1165 143.608 16.0938 142.952 16.0938H139.883C139.299 16.0938 138.807 16.112 138.406 16.1484C138.01 16.1803 137.682 16.2487 137.422 16.3535C137.162 16.4583 136.962 16.6087 136.82 16.8047C136.679 17.0007 136.576 17.2604 136.513 17.584C136.449 17.9076 136.412 18.3063 136.403 18.7803C136.394 19.2497 136.39 19.8125 136.39 20.4688C136.39 21.125 136.394 21.6901 136.403 22.1641C136.417 22.6335 136.456 23.0299 136.52 23.3535C136.583 23.6771 136.684 23.9368 136.82 24.1328C136.962 24.3288 137.162 24.4792 137.422 24.584C137.682 24.6888 138.01 24.7594 138.406 24.7959C138.807 24.8278 139.299 24.8438 139.883 24.8438H142.952C143.463 24.8438 143.902 24.8301 144.271 24.8027C144.641 24.7754 144.955 24.7253 145.215 24.6523C145.475 24.5794 145.684 24.4792 145.844 24.3516C146.003 24.224 146.126 24.0645 146.213 23.873C146.304 23.6771 146.366 23.4447 146.397 23.1758C146.429 22.9023 146.445 22.5833 146.445 22.2188H147.758C147.758 22.6562 147.73 23.0527 147.676 23.4082C147.621 23.7591 147.523 24.0736 147.382 24.3516C147.245 24.625 147.061 24.862 146.828 25.0625C146.596 25.263 146.302 25.4294 145.946 25.5615C145.591 25.6891 145.167 25.7826 144.675 25.8418C144.183 25.9056 143.608 25.9375 142.952 25.9375H139.883C139.081 25.9375 138.404 25.8874 137.853 25.7871C137.306 25.6914 136.854 25.5456 136.499 25.3496C136.144 25.1491 135.868 24.8984 135.672 24.5977C135.48 24.2969 135.339 23.9437 135.248 23.5381C135.161 23.1325 135.111 22.6745 135.098 22.1641C135.084 21.6536 135.077 21.0885 135.077 20.4688C135.077 19.849 135.084 19.2839 135.098 18.7734C135.111 18.263 135.161 17.805 135.248 17.3994C135.339 16.9938 135.48 16.6406 135.672 16.3398C135.868 16.0391 136.144 15.7907 136.499 15.5947C136.854 15.3942 137.306 15.2461 137.853 15.1504C138.404 15.0501 139.081 15 139.883 15H142.952C143.608 15 144.183 15.0319 144.675 15.0957C145.167 15.1549 145.591 15.2484 145.946 15.376C146.302 15.499 146.596 15.6562 146.828 15.8477C147.061 16.0391 147.245 16.2646 147.382 16.5244C147.523 16.7842 147.621 17.0781 147.676 17.4062C147.73 17.7344 147.758 18.099 147.758 18.5H146.445Z" fill="white"/>
    <path d="M160.89 15.2188H162.202V25.7188H160.89V20.9062H151.265V25.7188H149.952V15.2188H151.265V19.8125H160.89V15.2188Z" fill="white"/>
    <defs>
        <clipPath id="clip0_444_924">
            <rect width="36.9524" height="40" fill="white"/>
        </clipPath>
    </defs>
</svg>
