<svg width="16" height="16" viewBox="0 0 16 16" fill="currentColor" id="svg" xmlns="http://www.w3.org/2000/svg">
    <g clip-path="url(#clip0_598_2410)">
        <path d="M7.33337 1.33337C10.6454 1.33337 13.3334 4.02137 13.3334 7.33337C13.3334 10.6454 10.6454 13.3334 7.33337 13.3334C4.02137 13.3334 1.33337 10.6454 1.33337 7.33337C1.33337 4.02137 4.02137 1.33337 7.33337 1.33337ZM7.33337 12C9.91137 12 12 9.91137 12 7.33337C12 4.75471 9.91137 2.66671 7.33337 2.66671C4.75471 2.66671 2.66671 4.75471 2.66671 7.33337C2.66671 9.91137 4.75471 12 7.33337 12ZM12.99 12.0474L14.876 13.9327L13.9327 14.876L12.0474 12.99L12.99 12.0474Z" />
    </g>
    <defs>
        <clipPath id="clip0_598_2410">
            <rect width="16" height="16" />
        </clipPath>
    </defs>
</svg>
